<svg width="200" height="200" viewBox="0 0 200 200" fill="none" xmlns="http://www.w3.org/2000/svg">
<path d="M109.65 140.077L100.638 142.865C99.5965 143.204 97.6431 143.803 95.5594 143.803C93.7101 143.803 91.8087 143.334 90.298 141.797C89.4385 140.911 88.9436 139.921 88.7092 138.878L88.6311 138.513L85.766 142.553C85.766 142.605 85.8181 142.683 85.8441 142.761L85.9744 142.579L88.553 138.93C88.8134 139.999 89.3083 141.015 90.1939 141.927C93.4757 145.315 98.737 143.673 100.717 143.048L109.729 140.259C112.177 139.504 118.975 137.393 122.231 130.982C122.387 130.695 122.517 130.383 122.647 130.07C122.595 130.07 122.543 130.07 122.465 130.07C119.444 137.054 112.255 139.321 109.676 140.103L109.65 140.077Z" fill="white"/>
<path d="M120.382 115.216V115.398C120.408 115.398 120.382 115.216 120.382 115.216C118.975 115.477 117.595 115.633 116.214 115.737H116.11L116.084 115.867C115.667 117.118 115.224 118.421 114.782 119.698C114.834 119.698 114.912 119.698 114.964 119.698C115.381 118.447 115.823 117.197 116.24 115.946C117.621 115.841 119.027 115.659 120.434 115.424C129.94 113.757 138.223 109.144 144.448 102.681C144.813 102.238 145.151 101.769 145.49 101.3C139.161 108.388 130.487 113.496 120.382 115.268V115.216Z" fill="white"/>
<path d="M68.5493 90.0945C69.2786 90.0945 69.9818 90.1727 70.633 90.3551C71.6488 90.6157 72.5604 91.1108 73.3157 91.8144L73.5762 91.6059C71.7269 87.9055 70.3725 83.8923 69.6172 79.5924C69.1744 77.0386 68.94 74.4847 68.94 71.957C68.94 51.0571 83.9426 32.5548 105.222 28.8282C107.723 28.3852 110.223 28.1767 112.672 28.1507C111.916 28.1246 111.161 28.0986 110.379 28.0986C110.171 28.0986 109.963 28.0986 109.754 28.0986C109.546 28.0986 109.338 28.1246 109.129 28.1507C109.051 28.1507 108.999 28.1507 108.921 28.1507C107.801 28.2549 106.681 28.3852 105.561 28.5937C105.431 28.5937 105.327 28.6197 105.196 28.6458C81.2598 32.8414 65.2414 55.6697 69.4348 79.6185C70.1902 83.9183 71.5446 87.9576 73.3939 91.6841C72.6125 90.9805 71.7269 90.5114 70.7111 90.2248C70.633 90.2248 70.5548 90.1987 70.5027 90.1727C70.4246 90.1727 70.3725 90.1466 70.2944 90.1205C68.8358 89.8078 67.1428 89.9121 65.2414 90.4072C65.2414 90.4593 65.2935 90.5114 65.2935 90.5636C66.4656 90.2508 67.5335 90.1205 68.4972 90.1205L68.5493 90.0945Z" fill="white"/>
<path d="M122.699 129.888C122.699 129.94 122.647 129.992 122.621 130.07C122.491 130.383 122.335 130.695 122.204 130.982C121.918 131.712 121.579 132.389 121.163 133.015C117.308 139.295 108.999 142.136 106.603 142.891L97.5908 145.68C96.5489 146.019 94.5955 146.618 92.5118 146.618C90.6625 146.618 88.7611 146.149 87.2504 144.611C86.7035 144.038 86.2867 143.413 86.0263 142.787C86.0002 142.735 85.9742 142.657 85.9481 142.605L85.8179 142.787L85.7137 142.943L84.8281 144.22C84.2551 145.028 83.6561 145.784 83.083 146.435C83.031 146.488 83.0049 146.54 82.9528 146.592C82.5882 147.009 82.2235 147.374 81.8589 147.738C81.5724 148.103 81.2859 148.442 80.9733 148.755C77.8998 152.143 74.4357 153.81 70.685 154.514C69.9037 154.67 69.1744 154.722 68.5232 154.722C65.4498 154.722 63.7047 153.289 62.8451 152.299C62.1679 151.517 61.5168 150.37 61.2303 148.807C61.2303 148.729 61.2042 148.651 61.1782 148.546L60.9177 148.963L58.9122 152.012C58.7038 152.351 58.235 153.029 57.5057 153.862C57.4536 153.915 57.4015 153.967 57.3494 154.045C57.0108 154.41 56.6201 154.801 56.2034 155.192C55.9168 155.504 55.6303 155.817 55.3438 156.13C53.3904 158.136 50.6555 160.273 46.3579 161.602L38.5961 164L30.5478 166.501L48.1811 110.369L32.4492 102.316L32.1888 102.577L26.9274 107.633L42.7114 115.685L25 172L33.3869 169.394L41.1486 166.97C47.009 165.146 51.9057 161.837 56.3075 155.687C56.6201 156.468 57.0629 157.12 57.4796 157.615C58.5215 158.84 60.9698 160.742 65.4758 159.882C69.513 159.127 76.2329 155.817 81.2598 149.172C81.4421 149.432 81.6505 149.693 81.8849 149.954C85.1667 153.315 90.4281 151.7 92.4076 151.074L101.42 148.286C104.05 147.478 117.646 142.005 121.866 132.52C122.204 131.79 122.465 131.034 122.673 130.252C122.673 130.2 122.673 130.174 122.699 130.122V130.044L122.751 129.862H122.725L122.699 129.888ZM56.9847 154.488C56.9847 154.488 56.9587 154.54 56.9327 154.566C56.9327 154.566 56.9587 154.514 56.9847 154.488Z" fill="#1D1160"/>
<path d="M120.407 115.398C119.001 115.659 117.62 115.815 116.214 115.92C115.797 117.144 115.354 118.421 114.938 119.646C115.016 119.646 115.068 119.646 115.146 119.646C115.511 119.594 115.901 119.542 116.266 119.464C126.945 117.587 136.426 112.141 143.354 103.984C143.719 103.541 144.083 103.124 144.422 102.655C138.171 109.118 129.914 113.731 120.407 115.398Z" fill="#1D1160"/>
<path d="M65.2153 90.2248C65.2153 90.2769 65.2414 90.329 65.2674 90.3811C67.1688 89.886 68.8618 89.7818 70.3204 90.0945C70.3985 90.0945 70.4506 90.1205 70.5288 90.1466C70.6069 90.1466 70.685 90.1727 70.7371 90.1987C70.7111 90.1205 70.6851 90.0684 70.633 89.9902C69.2004 86.7588 68.1325 83.319 67.4814 79.6967C67.0386 77.1428 66.8302 74.589 66.8302 72.0612C66.8302 51.5522 81.2598 33.3626 101.914 29.1409C102.305 29.0628 102.696 28.9846 103.113 28.9064C103.92 28.75 104.753 28.6458 105.561 28.5416C106.681 28.3591 107.801 28.2028 108.921 28.0985C108.999 28.0985 109.051 28.0985 109.129 28.0985C109.338 28.0985 109.546 28.0725 109.754 28.0464C109.806 28.0464 109.859 28.0464 109.911 28.0464C109.103 28.0204 108.27 28.0204 107.436 28.0464C105.092 28.0985 102.722 28.307 100.352 28.724C75.3473 33.102 58.5996 57.0248 62.9754 82.016C63.4702 84.8304 64.2256 87.5667 65.1893 90.1987L65.2153 90.2248Z" fill="#1D1160"/>
<path d="M55.3178 156.104C55.6303 155.791 55.9168 155.452 56.1773 155.165C54.6406 156.547 52.4267 158.058 49.4053 158.97L41.6435 161.394L33.2566 164L50.9681 107.685L45.29 104.792L35.2101 99.6323L35.0799 99.7626L32.3971 102.343L32.2669 102.473L42.2426 107.581L47.9207 110.473L30.2092 166.788L38.5701 164.182L46.3318 161.785C51.3327 160.221 54.2759 157.563 56.2555 155.296C55.9429 155.582 55.6043 155.843 55.2657 156.13L55.3178 156.104Z" fill="#BEC0C2"/>
<path d="M122.699 129.888C122.699 129.94 122.647 129.992 122.621 130.07C122.491 130.383 122.335 130.695 122.204 130.982C118.949 137.393 112.177 139.504 109.702 140.259L100.69 143.048C98.7109 143.673 93.4495 145.289 90.1677 141.927C89.2821 141.015 88.7873 139.999 88.5268 138.93L85.9482 142.579C85.9482 142.657 86.0003 142.709 86.0264 142.761L85.9222 142.917C86.2087 143.543 86.5994 144.142 87.1464 144.716C90.4282 148.077 95.6895 146.462 97.669 145.836L106.681 143.048C109.312 142.214 119.157 138.878 122.361 131.086C122.465 130.826 122.569 130.539 122.673 130.252C122.673 130.2 122.673 130.174 122.699 130.122V130.044L122.751 129.862L122.83 129.575C122.804 129.679 122.751 129.757 122.725 129.862L122.699 129.888Z" fill="#BEC0C2"/>
<path d="M81.8588 147.686C79.4886 149.98 76.9621 151.257 73.7844 151.856C69.2785 152.742 66.8301 150.813 65.7883 149.589C64.8506 148.52 63.9911 146.826 63.9911 144.325L61.2302 148.52L61.0999 148.729C61.0999 148.807 61.0999 148.885 61.152 148.989C61.4646 150.501 62.1157 151.595 62.7669 152.377C63.8087 153.602 66.2571 155.504 70.7631 154.644C74.9044 153.862 78.7072 151.908 82.015 147.791C82.3536 147.4 82.6662 146.983 82.9788 146.54C82.6141 146.957 82.2495 147.321 81.8848 147.686H81.8588Z" fill="#BEC0C2"/>
<path d="M105.535 28.4373C104.727 28.5416 103.92 28.6458 103.087 28.8022C79.1501 32.9978 63.1317 55.826 67.3251 79.7749C67.9502 83.3711 69.0181 86.7849 70.4246 89.9903C70.4506 90.0684 70.4767 90.1206 70.5288 90.1987C70.6069 90.1987 70.6851 90.2248 70.7372 90.2509C71.753 90.5375 72.6385 91.0066 73.4199 91.7102C71.5706 87.9837 70.2162 83.9444 69.4609 79.6446C65.2675 55.6957 81.2859 32.8675 105.222 28.6719C105.353 28.6719 105.457 28.6458 105.587 28.6198C106.707 28.4373 107.827 28.281 108.947 28.1767C109.025 28.1767 109.077 28.1767 109.155 28.1767C107.957 28.2289 106.759 28.307 105.535 28.4634V28.4373Z" fill="#BEC0C2"/>
<path d="M144.422 102.629C138.171 109.092 129.914 113.705 120.407 115.372C119.001 115.633 117.62 115.789 116.214 115.894C115.797 117.118 115.354 118.395 114.938 119.62C114.521 120.845 114.104 122.07 113.713 123.242L125.356 119.62L123.429 127.49C123.246 128.22 123.038 128.923 122.778 129.575C122.752 129.679 122.699 129.757 122.673 129.862C122.673 129.914 122.621 129.966 122.595 130.044C122.465 130.357 122.309 130.669 122.179 130.956C118.923 137.367 112.151 139.478 109.676 140.233L100.664 143.022C98.6848 143.647 93.4235 145.263 90.1417 141.901C89.2561 140.989 88.7612 139.973 88.5008 138.904L85.9222 142.553L85.792 142.735L85.6878 142.891L84.8022 144.168C84.2292 144.976 83.6301 145.732 83.0571 146.383C83.005 146.435 82.979 146.488 82.9269 146.54C82.5622 146.957 82.1976 147.322 81.8329 147.686C79.4627 149.98 76.9362 151.257 73.7586 151.856C69.2526 152.742 66.8043 150.814 65.7624 149.589C64.8248 148.52 63.9652 146.826 63.9652 144.325L61.2043 148.52L60.9439 148.937L58.9383 151.986C58.7299 152.325 58.2611 153.003 57.5318 153.836C57.4797 153.889 57.4276 153.941 57.3755 154.019C57.2453 154.175 57.1411 154.332 57.0109 154.488C57.0109 154.488 56.9848 154.54 56.9588 154.566C56.8546 154.696 56.7504 154.827 56.6202 154.957C56.5942 155.009 56.5421 155.035 56.516 155.087C56.4639 155.139 56.4118 155.218 56.3337 155.296C56.0211 155.582 55.6824 155.843 55.3438 156.13C53.8852 157.276 51.9579 158.397 49.5096 159.153L41.7478 161.576L33.0484 164.26L50.8119 107.789L35.1842 99.7887H35.1321C35.1321 99.7626 35.2623 99.6323 35.2623 99.6323L64.5382 90.6157C64.7987 90.5375 65.0592 90.4593 65.3196 90.4072C67.221 89.9121 68.914 89.8078 70.3726 90.1205C70.4507 90.1205 70.5028 90.1466 70.581 90.1727C70.6591 90.1727 70.7372 90.1987 70.7893 90.2248C71.8051 90.5114 72.6907 90.9805 73.4721 91.6841C71.6228 87.9576 70.2684 83.9183 69.5131 79.6185C65.3196 55.6697 81.338 32.8414 105.275 28.6458C105.405 28.6458 105.509 28.6197 105.639 28.5937C106.759 28.4113 107.879 28.2549 108.999 28.1507C107.853 28.2028 106.681 28.281 105.509 28.4373C105.535 28.4373 105.561 28.4373 105.587 28.4373C106.785 28.281 107.983 28.2028 109.207 28.1507C109.416 28.1507 109.624 28.1246 109.833 28.0986C109.885 28.0986 109.937 28.0986 109.989 28.0986C132.128 26.6132 152.288 42.0665 156.195 64.4257C158.721 78.8367 153.929 92.8568 144.474 102.629H144.422Z" fill="#061922"/>
<path d="M151.845 83.5014C149.345 90.8242 144.813 97.2088 138.744 101.952C132.805 106.564 125.747 109.379 118.272 110.134H118.011C118.011 110.16 118.089 109.9 118.089 109.9L119.548 105.626L119.834 104.766L119.939 104.975L120.173 104.87L119.834 104.766C121.527 99.8669 121.111 96.0622 118.636 93.5083C116.032 90.8242 112.047 90.7981 109.989 91.4496C104.597 93.0392 102.67 95.1501 100.143 98.4336L99.7788 98.9027L99.8569 98.3033C100.143 95.3846 99.4402 93.0392 97.7733 91.3193C95.0905 88.557 91.1575 88.8176 89.4645 89.3648C87.7715 89.886 86.2608 90.5114 84.9064 91.2411C83.7864 91.8405 81.0516 91.8665 80.5828 91.1108C74.6182 81.13 73.3419 69.0643 77.0665 58.0672C80.4786 48.0603 87.5631 39.9818 97.0179 35.3171C106.499 30.6524 117.204 29.9488 127.205 33.3626C137.207 36.7764 145.282 43.8647 149.944 53.3243C154.606 62.81 155.309 73.5206 151.897 83.5275L151.845 83.5014Z" fill="#E56020"/>
<path d="M152.783 53.8194C153.799 55.5133 153.616 55.5394 153.616 55.5394H153.668C153.668 55.5654 166.718 40.2423 166.718 40.2423C90.3501 47.2003 52.4269 76.9604 52.4269 76.9604C52.4269 76.9604 70.8155 67.9177 82.6665 64.2694C108.27 56.3733 150.048 49.2069 152.783 53.8194Z" fill="#061922"/>
<path d="M155.778 67.8917C156.716 69.5074 156.794 70.237 156.794 70.3673L171.536 53.7673C90.9489 61.1161 50.9419 92.5441 50.9419 92.5441C50.9419 92.5441 70.3463 83.0063 82.8746 79.1494C109.311 70.9928 152.6 62.5755 155.778 67.9177V67.8917Z" fill="#061922"/>
<path d="M154.476 82.6936L153.825 87.3843H153.851L170.963 68.4389C89.8554 75.8138 54.2242 104.401 54.2242 104.401C54.2242 104.401 69.5133 96.427 81.9113 92.6483C108.504 84.5177 151.324 77.2992 154.502 82.6675L154.476 82.6936Z" fill="#061922"/>
<path d="M166.717 40.2684L170.26 36.0989C91.8866 45.7149 52.3485 76.9865 52.3485 76.9865C52.3485 76.9865 52.4787 76.9083 52.6611 76.804C55.8648 74.3805 93.7359 46.9136 166.717 40.2684Z" fill="#BEC0C2"/>
<path d="M175 49.8584C93.1107 59.4223 50.9419 92.518 50.9419 92.518C50.9419 92.518 90.9489 61.1161 171.536 53.7413L174.974 49.8584H175Z" fill="#BEC0C2"/>
<path d="M174.531 64.5299C125.929 70.3412 93.0848 83.0584 74.2273 92.518C74.2794 92.5701 74.3315 92.6483 74.3836 92.7004C92.8243 83.8923 124.418 72.6866 170.963 68.4389L174.531 64.5039V64.5299Z" fill="#BEC0C2"/>
<path d="M57.6618 103.932L48.2852 99.1372L67.1427 93.3259C68.1064 93.0132 69.044 92.8308 69.8775 92.8308C70.6849 92.8308 71.3882 93.0132 71.8831 93.5083C72.378 94.0034 72.6645 94.7592 72.6645 95.8537C72.6645 96.844 72.43 98.1209 71.9091 99.7626L64.0171 125.014L79.8532 102.16C83.2132 97.287 85.375 93.9513 92.0168 91.9187C92.2252 91.8405 92.694 91.7623 93.267 91.7623C93.9963 91.7623 94.934 91.9187 95.6893 92.4659C96.4446 93.0392 96.9916 94.0034 96.9916 95.5931C96.9916 96.6615 96.7572 97.9906 96.1581 99.6845L89.0736 120.272L103.165 101.717C106.759 97.0003 107.697 95.4107 112.567 93.9774C112.776 93.8992 113.27 93.821 113.87 93.821C114.677 93.821 115.693 93.9774 116.526 94.5768C117.36 95.1761 117.985 96.2185 117.985 97.9124C117.985 98.9548 117.75 100.258 117.203 101.873L108.139 128.559L120.642 124.676L120.563 124.962C118.975 131.529 112.619 133.64 109.78 134.526L100.768 137.315C99.1534 137.81 97.8772 138.044 96.8874 138.044C95.8977 138.044 95.1684 137.81 94.7256 137.341C94.2568 136.872 94.1005 136.22 94.1005 135.464C94.1005 134.396 94.4391 133.119 94.9079 131.712L100.873 114.33L82.5881 140.103C79.9053 143.856 77.5872 145.393 74.3314 145.992C73.8105 146.097 73.3677 146.149 72.951 146.149C71.831 146.149 71.0235 145.81 70.5026 145.185C69.9817 144.585 69.7733 143.751 69.7733 142.787C69.7733 141.719 70.0338 140.52 70.4766 139.295L79.4365 113.366L56.5939 148.077C56.5939 148.077 54.5103 151.673 49.5094 153.237L41.4351 155.739L57.74 103.906L57.6618 103.932Z" fill="white"/>
</svg>
