<svg width="200" height="200" viewBox="0 0 200 200" fill="none" xmlns="http://www.w3.org/2000/svg">
<path d="M100 43.7421L30 25L100 175L170 25L100 43.7421Z" fill="black"/>
<path d="M100 43.7421L30 25L100 175L170 25L100 43.7421ZM92.6937 109.52L94.5021 85.8602H99.0278L98.8625 107.106H101.142L100.977 85.8602H105.503L107.311 109.52H92.6937ZM103.867 64.4976L105.245 82.5329H94.7549L96.133 64.4976H99.1931L99.0715 79.9974H100.926L100.805 64.4976H103.867ZM92.3583 47.5964L60.8437 81.1632L53.6809 65.8139L92.3559 47.594L92.3583 47.5964ZM52.1861 62.6129L45.9177 49.1823L91.2378 46.3359L52.1861 62.6129ZM93.1531 49.0973L71.1785 103.305L62.4698 84.6435L93.1531 49.0973ZM94.5726 49.7725L85.0375 133.011L73.2323 107.716L94.5701 49.7725H94.5726ZM105.427 49.7725L126.765 107.716L114.962 133.011L105.427 49.7725ZM106.847 49.0973L137.53 84.6435L128.822 103.305L106.847 49.0973ZM107.642 47.5964L146.319 65.8164L139.156 81.1656L107.642 47.5988V47.5964ZM108.762 46.3359L154.082 49.1823L147.814 62.6129L108.762 46.3359ZM112.235 44.8107L162.385 31.3826L155.682 45.7482L112.235 44.8107ZM99.3243 47.9049L99.2368 59.0671H100.766L100.678 47.9049L102.562 47.4021L103.651 61.6463H96.3542L97.4431 47.4021L99.3267 47.9049H99.3243ZM87.7646 44.8107L44.3184 45.7482L37.6149 31.3826L87.7646 44.8107ZM90.0736 143.799L92.4021 113.324H98.8115L98.4955 153.754L100 156.977L101.505 153.754L101.189 113.324H107.598L109.926 143.799L100 165.069L90.0736 143.799Z" fill="#B896D4"/>
</svg>
